# Blender 4.3.2
# www.blender.org
mtllib aircraft.mtl
o Cube
v 0.880579 -1.000000 1.614382
v 1.000000 1.000000 0.942943
v 0.955595 -0.906412 -1.952172
v 1.000000 1.000000 -0.514639
v 1.000000 0.000000 -1.296169
v 1.000000 0.000000 1.319611
v 0.459191 -0.109764 3.253479
v 0.507849 -0.840229 3.135935
v 0.165838 -0.306388 -6.885255
v 0.026985 -0.035970 -6.983085
v 0.000000 -0.906412 -1.952172
v 0.000000 1.000000 -0.534519
v 0.000000 -1.000000 1.614382
v 0.000000 1.000000 1.034918
v 0.000000 0.000000 1.614382
v 0.000000 0.000000 -1.614382
v 0.000000 -0.840229 3.135935
v 0.000000 -0.109764 3.253479
v 0.000000 -0.364970 -7.016033
v 0.000000 -0.037043 -7.016033
v 0.000000 1.096847 -0.534519
v 1.000000 1.096847 -0.514639
v 1.000000 1.096847 0.932194
v 0.000000 1.096847 1.024170
v 5.346573 1.025718 -0.860284
v 5.168190 1.002032 -0.016459
v 5.346573 1.071129 -0.860284
v 5.168190 1.098880 -0.062889
v 0.000000 1.048424 1.072083
v 0.000000 1.048424 -0.565034
v 1.000000 1.048424 -0.545154
v 1.000000 1.048424 0.980108
v 5.346573 1.048424 -0.907035
v 5.168190 1.050456 0.027071
v 0.335567 -0.319259 -5.792797
v 0.049069 -0.028551 -5.708470
v 0.000000 -0.028160 -5.566778
v 0.000000 -0.494808 -6.108426
v 0.171453 -0.263506 -6.886027
v 0.000000 -0.036742 -7.002792
v 0.000000 -0.028499 -5.599374
v 0.331266 -0.232007 -5.794391
v 0.000000 2.074482 -6.845918
v 0.000000 2.066239 -7.455252
v 0.009155 2.067012 -7.435545
v 0.010488 2.074430 -6.955014
v 0.153483 -0.037043 -7.016033
v 0.153483 -0.364970 -7.016033
v 0.349206 -0.494808 -5.647780
v 0.349206 -0.028160 -5.490471
v 1.000000 -0.453206 -1.624171
v 1.000000 -0.500000 1.466997
v 0.585965 -0.474997 3.194707
v 0.153483 -0.201006 -7.016033
v 0.000000 -0.201006 -7.016033
v 0.000000 -0.474997 3.194707
v 0.354049 -0.261484 -5.569126
v 0.173417 -0.284947 -6.906664
v 0.347080 -0.281154 -5.683301
v 1.980788 -0.305273 -6.999489
v 1.970592 -0.319730 -6.979195
v 1.841221 -0.340124 -6.134661
v 1.976259 -0.290816 -6.979259
v 1.837154 -0.273026 -6.136780
v 1.838962 -0.302330 -6.024585
v -0.880579 -1.000000 1.614382
v -1.000000 1.000000 0.942943
v -0.955595 -0.906412 -1.952172
v -1.000000 1.000000 -0.514639
v -1.000000 0.000000 -1.296169
v -1.000000 0.000000 1.319611
v -0.459191 -0.109764 3.253479
v -0.507849 -0.840229 3.135935
v -0.165838 -0.306388 -6.885255
v -0.026985 -0.035970 -6.983085
v -1.000000 1.096847 -0.514639
v -1.000000 1.096847 0.932194
v -5.346573 1.025718 -0.860284
v -5.168190 1.002032 -0.016459
v -5.346573 1.071129 -0.860284
v -5.168190 1.098880 -0.062889
v -1.000000 1.048424 -0.545154
v -1.000000 1.048424 0.980108
v -5.346573 1.048424 -0.907035
v -5.168190 1.050456 0.027071
v -0.335567 -0.319259 -5.792797
v -0.049069 -0.028551 -5.708470
v -0.171453 -0.263506 -6.886027
v -0.331266 -0.232007 -5.794391
v -0.009155 2.067012 -7.435545
v -0.010488 2.074430 -6.955014
v -0.153483 -0.037043 -7.016033
v -0.153483 -0.364970 -7.016033
v -0.349206 -0.494808 -5.647780
v -0.349206 -0.028160 -5.490471
v -1.000000 -0.453206 -1.624171
v -1.000000 -0.500000 1.466997
v -0.585965 -0.474997 3.194707
v -0.153483 -0.201006 -7.016033
v -0.354049 -0.261484 -5.569126
v -0.173417 -0.284947 -6.906664
v -0.347080 -0.281154 -5.683301
v -1.980788 -0.305273 -6.999489
v -1.970592 -0.319730 -6.979195
v -1.841221 -0.340124 -6.134661
v -1.976259 -0.290816 -6.979259
v -1.837154 -0.273026 -6.136780
v -1.838962 -0.302330 -6.024585
vn 0.1228 0.6761 -0.7265
vn 1.0000 -0.0000 -0.0000
vn -0.0000 -0.9997 -0.0262
vn 0.9533 0.1655 0.2524
vn 0.0933 0.9416 0.3235
vn -0.0000 -0.9945 0.1044
vn -0.0000 -0.0000 -1.0000
vn 0.9999 0.0080 -0.0134
vn 0.1119 -0.9862 -0.1221
vn 0.0128 0.9979 0.0632
vn -0.0000 -0.1589 0.9873
vn 0.1719 0.4249 0.8888
vn -0.0000 1.0000 -0.0000
vn 0.0168 0.5331 -0.8459
vn 0.0008 0.9999 -0.0123
vn 0.0652 0.7019 0.7093
vn 0.9727 0.1205 0.1983
vn -0.0529 0.7347 -0.6763
vn 0.0017 -0.9999 -0.0102
vn 0.1739 -0.6304 0.7566
vn 0.1327 0.8111 0.5697
vn -0.0529 -0.7347 -0.6763
vn 0.9804 0.0089 0.1968
vn 0.0728 -0.6072 0.7912
vn 0.0168 -0.5331 -0.8459
vn 0.0378 -0.9935 -0.1071
vn 0.0021 1.0000 -0.0071
vn 0.9868 0.0239 -0.1599
vn -0.0008 0.9995 -0.0319
vn -1.0000 -0.0000 -0.0000
vn 0.0043 1.0000 -0.0062
vn -0.0001 1.0000 -0.0028
vn -0.1010 0.9948 -0.0142
vn 0.7325 -0.1402 -0.6662
vn 0.9519 0.1627 0.2597
vn 0.9887 -0.0565 -0.1389
vn 0.9891 -0.0035 -0.1471
vn 0.9893 0.0547 -0.1352
vn 0.9938 0.0621 -0.0924
vn 0.9967 -0.0036 -0.0814
vn 0.9918 0.0245 -0.1253
vn 0.9830 0.0985 -0.1546
vn 0.0606 -0.9442 0.3238
vn 0.9853 -0.1708 0.0075
vn 0.9512 -0.1925 0.2413
vn 0.9197 -0.3692 0.1335
vn 0.9007 0.4131 0.1345
vn -0.0126 -0.9998 -0.0169
vn -0.0242 0.7492 -0.6619
vn 0.0173 0.9995 -0.0257
vn -0.0412 -0.7485 -0.6619
vn -0.1228 0.6761 -0.7265
vn -0.9533 0.1655 0.2524
vn -0.0933 0.9416 0.3235
vn -0.9999 0.0080 -0.0134
vn -0.1119 -0.9862 -0.1221
vn -0.0128 0.9979 0.0632
vn -0.1719 0.4249 0.8888
vn -0.0168 0.5331 -0.8459
vn -0.0008 0.9999 -0.0123
vn -0.0652 0.7019 0.7093
vn -0.9727 0.1205 0.1983
vn 0.0529 0.7347 -0.6763
vn -0.0017 -0.9999 -0.0102
vn -0.1739 -0.6304 0.7566
vn -0.1327 0.8111 0.5697
vn 0.0529 -0.7347 -0.6763
vn -0.9804 0.0089 0.1968
vn -0.0728 -0.6072 0.7912
vn -0.0168 -0.5331 -0.8459
vn -0.0378 -0.9935 -0.1071
vn -0.0021 1.0000 -0.0071
vn -0.9868 0.0239 -0.1599
vn 0.0008 0.9995 -0.0319
vn -0.0043 1.0000 -0.0062
vn 0.0001 1.0000 -0.0028
vn 0.1010 0.9948 -0.0142
vn -0.7325 -0.1402 -0.6662
vn -0.9519 0.1627 0.2597
vn -0.9887 -0.0565 -0.1389
vn -0.9891 -0.0035 -0.1471
vn -0.9893 0.0547 -0.1352
vn -0.9938 0.0621 -0.0924
vn -0.9967 -0.0036 -0.0814
vn -0.9918 0.0245 -0.1253
vn -0.9830 0.0985 -0.1546
vn -0.0606 -0.9442 0.3238
vn -0.9853 -0.1708 0.0075
vn -0.9512 -0.1925 0.2413
vn -0.9197 -0.3692 0.1335
vn -0.9007 0.4131 0.1345
vn 0.0126 -0.9998 -0.0169
vn 0.0242 0.7492 -0.6619
vn -0.0173 0.9995 -0.0257
vn 0.0412 -0.7485 -0.6619
vt 0.500000 0.375000
vt 0.625000 0.375000
vt 0.625000 0.500000
vt 0.500000 0.500000
vt 0.625000 0.750000
vt 0.500000 0.750000
vt 0.250000 0.500000
vt 0.375000 0.500000
vt 0.375000 0.750000
vt 0.250000 0.750000
vt 0.437500 0.750000
vt 0.437500 0.500000
vt 0.469673 0.500000
vt 0.437399 0.500000
vt 0.437500 0.375000
vt 0.500000 0.484473
vt 0.500000 0.469039
vt 0.375000 0.500000
vt 0.500000 0.875000
vt 0.437500 0.875000
vt 0.625000 0.875000
vt 0.750000 0.500000
vt 0.750000 0.750000
vt 0.500000 0.405820
vt 0.500000 0.390274
vt 0.437514 0.500000
vt 0.415578 0.500000
vt 0.405124 0.500000
vt 0.459449 0.500000
vt 0.375000 0.875000
vt 0.375000 0.375000
s 0
f 16/1/1 12/2/1 4/3/1 5/4/1
f 5/4/2 4/3/2 2/5/2 6/6/2
f 11/7/3 3/8/3 1/9/3 13/10/3
f 52/11/4 6/6/4 7/6/4 53/11/4
f 51/12/2 5/4/2 6/6/2 52/11/2
f 42/13/5 59/14/5 65/14/5 64/13/5
f 13/10/6 1/9/6 8/9/6 17/10/6
f 55/15/7 20/1/7 47/4/7 54/12/7
f 36/16/8 10/17/8 45/17/8 46/16/8
f 49/18/9 38/7/9 19/7/9 48/8/9
f 6/6/10 15/19/10 18/19/10 7/6/10
f 53/11/11 7/6/11 18/19/11 56/20/11
f 6/6/12 2/5/12 14/21/12 15/19/12
f 22/3/13 21/22/13 24/23/13 23/5/13
f 31/3/14 30/2/14 21/2/14 22/3/14
f 22/3/15 23/5/15 28/5/15 27/3/15
f 29/21/16 32/5/16 23/5/16 24/21/16
f 34/5/17 33/3/17 27/3/17 28/5/17
f 31/3/18 22/3/18 27/3/18 33/3/18
f 2/5/19 4/3/19 25/3/19 26/5/19
f 32/5/20 2/5/20 26/5/20 34/5/20
f 23/5/21 32/5/21 34/5/21 28/5/21
f 4/3/22 31/3/22 33/3/22 25/3/22
f 26/5/23 25/3/23 33/3/23 34/5/23
f 14/21/24 2/5/24 32/5/24 29/21/24
f 4/3/25 12/2/25 30/2/25 31/3/25
f 3/8/26 11/7/26 38/7/26 49/18/26
f 16/1/27 5/4/27 50/4/27 37/1/27
f 51/12/28 3/8/28 49/18/28 57/12/28
f 40/24/29 10/17/29 47/4/29 20/1/29
f 41/25/30 40/24/30 20/1/30 37/1/30
f 10/17/31 36/16/31 50/4/31 47/4/31
f 36/16/32 41/25/32 37/1/32 50/4/32
f 43/25/33 46/16/33 45/17/33 44/24/33
f 10/17/34 40/24/34 44/24/34 45/17/34
f 41/25/35 36/16/35 46/16/35 43/25/35
f 40/24/30 41/25/30 43/25/30 44/24/30
f 58/26/36 9/27/36 48/8/36 54/12/36
f 9/27/37 35/28/37 49/18/37 48/8/37
f 42/13/38 39/29/38 47/4/38 50/4/38
f 59/14/39 42/13/39 50/4/39 57/12/39
f 35/28/40 59/14/40 57/12/40 49/18/40
f 39/29/41 58/26/41 54/12/41 47/4/41
f 5/4/42 51/12/42 57/12/42 50/4/42
f 8/9/11 53/11/11 56/20/11 17/30/11
f 19/31/7 55/15/7 54/12/7 48/8/7
f 59/14/43 35/28/43 62/28/43 65/14/43
f 3/8/44 51/12/44 52/11/44 1/9/44
f 1/9/45 52/11/45 53/11/45 8/9/45
f 65/14/46 62/28/46 61/27/46 60/26/46
f 64/13/47 65/14/47 60/26/47 63/29/47
f 35/28/48 9/27/48 61/27/48 62/28/48
f 58/26/49 39/29/49 63/29/49 60/26/49
f 39/29/50 42/13/50 64/13/50 63/29/50
f 9/27/51 58/26/51 60/26/51 61/27/51
f 16/1/52 70/4/52 69/3/52 12/2/52
f 70/4/30 71/6/30 67/5/30 69/3/30
f 11/7/3 13/10/3 66/9/3 68/8/3
f 97/11/53 98/11/53 72/6/53 71/6/53
f 96/12/30 97/11/30 71/6/30 70/4/30
f 89/13/54 107/13/54 108/14/54 102/14/54
f 13/10/6 17/10/6 73/9/6 66/9/6
f 55/15/7 99/12/7 92/4/7 20/1/7
f 87/16/55 91/16/55 90/17/55 75/17/55
f 94/18/56 93/8/56 19/7/56 38/7/56
f 71/6/57 72/6/57 18/19/57 15/19/57
f 98/11/11 56/20/11 18/19/11 72/6/11
f 71/6/58 15/19/58 14/21/58 67/5/58
f 76/3/13 77/5/13 24/23/13 21/22/13
f 82/3/59 76/3/59 21/2/59 30/2/59
f 76/3/60 80/3/60 81/5/60 77/5/60
f 29/21/61 24/21/61 77/5/61 83/5/61
f 85/5/62 81/5/62 80/3/62 84/3/62
f 82/3/63 84/3/63 80/3/63 76/3/63
f 67/5/64 79/5/64 78/3/64 69/3/64
f 83/5/65 85/5/65 79/5/65 67/5/65
f 77/5/66 81/5/66 85/5/66 83/5/66
f 69/3/67 78/3/67 84/3/67 82/3/67
f 79/5/68 85/5/68 84/3/68 78/3/68
f 14/21/69 29/21/69 83/5/69 67/5/69
f 69/3/70 82/3/70 30/2/70 12/2/70
f 68/8/71 94/18/71 38/7/71 11/7/71
f 16/1/72 37/1/72 95/4/72 70/4/72
f 96/12/73 100/12/73 94/18/73 68/8/73
f 40/24/74 20/1/74 92/4/74 75/17/74
f 75/17/75 92/4/75 95/4/75 87/16/75
f 87/16/76 95/4/76 37/1/76 41/25/76
f 43/25/77 44/24/77 90/17/77 91/16/77
f 75/17/78 90/17/78 44/24/78 40/24/78
f 41/25/79 43/25/79 91/16/79 87/16/79
f 101/26/80 99/12/80 93/8/80 74/27/80
f 74/27/81 93/8/81 94/18/81 86/28/81
f 89/13/82 95/4/82 92/4/82 88/29/82
f 102/14/83 100/12/83 95/4/83 89/13/83
f 86/28/84 94/18/84 100/12/84 102/14/84
f 88/29/85 92/4/85 99/12/85 101/26/85
f 70/4/86 95/4/86 100/12/86 96/12/86
f 73/9/11 17/30/11 56/20/11 98/11/11
f 19/31/7 93/8/7 99/12/7 55/15/7
f 102/14/87 108/14/87 105/28/87 86/28/87
f 68/8/88 66/9/88 97/11/88 96/12/88
f 66/9/89 73/9/89 98/11/89 97/11/89
f 108/14/90 103/26/90 104/27/90 105/28/90
f 107/13/91 106/29/91 103/26/91 108/14/91
f 86/28/92 105/28/92 104/27/92 74/27/92
f 101/26/93 103/26/93 106/29/93 88/29/93
f 88/29/94 106/29/94 107/13/94 89/13/94
f 74/27/95 104/27/95 103/26/95 101/26/95
